<svg width="45" height="44" viewBox="0 0 45 44" fill="none" xmlns="http://www.w3.org/2000/svg">
<path d="M23.029 44H22.9322C10.8318 44 0.987061 34.1524 0.987061 22.0484V21.9516C0.987061 9.84763 10.8318 0 22.9322 0H23.029C35.1294 0 44.9741 9.84763 44.9741 21.9516V22.0484C44.9741 34.1524 35.1294 44 23.029 44ZM22.9322 1.48935C11.6522 1.48935 2.47598 10.6683 2.47598 21.9516V22.0484C2.47598 33.3317 11.6522 42.5106 22.9322 42.5106H23.029C34.309 42.5106 43.4852 33.3317 43.4852 22.0484V21.9516C43.4852 10.6683 34.309 1.48935 23.029 1.48935H22.9322Z" fill="white"/>
<path d="M21.336 22.7993C20.9668 22.3362 20.5439 21.9817 20.0705 21.7419C20.4888 21.4872 20.8492 21.1745 21.1469 20.8021C21.6487 20.1736 21.9033 19.3857 21.9033 18.4594C21.9033 17.6864 21.6993 16.976 21.2958 16.3489C20.8938 15.7219 20.2953 15.2185 19.5166 14.8521C18.7543 14.4932 17.8356 14.3115 16.7889 14.3115H10.8347V29.6921H17.0628C18.0828 29.6921 18.994 29.5059 19.7697 29.1395C20.5603 28.7672 21.1767 28.2459 21.5996 27.5921C22.0239 26.9353 22.2398 26.1891 22.2398 25.3744C22.2398 24.4198 21.9361 23.5545 21.336 22.8008V22.7993ZM18.1736 19.9964C17.8058 20.2942 17.2683 20.4462 16.579 20.4462H14.0031V17.0385H16.579C17.2653 17.0385 17.7999 17.1949 18.1676 17.5047C18.5205 17.8011 18.6917 18.2107 18.6917 18.7528C18.6917 19.2949 18.522 19.7149 18.1736 19.9964ZM14.0031 23.1747H16.768C17.4917 23.1747 18.0485 23.3504 18.4699 23.7123C18.8734 24.0593 19.0699 24.5196 19.0699 25.1213C19.0699 25.723 18.8883 26.1474 18.5131 26.4646C18.1244 26.7938 17.5661 26.9606 16.8514 26.9606H14.0031V23.1747Z" fill="white"/>
<path d="M34.4041 20.2269C33.9247 19.3601 33.2458 18.6765 32.3852 18.197C31.5261 17.7174 30.533 17.4746 29.4371 17.4746C28.3413 17.4746 27.2737 17.7248 26.3938 18.2178C25.5123 18.7123 24.8185 19.4227 24.3331 20.3327C23.8477 21.2412 23.6021 22.3076 23.6021 23.502C23.6021 24.6965 23.8552 25.7644 24.3554 26.6714C24.8557 27.5799 25.5555 28.2948 26.4369 28.7952C27.3169 29.2956 28.3264 29.5488 29.4386 29.5488C30.8039 29.5488 31.9638 29.2018 32.8869 28.5182C33.8101 27.8345 34.4562 26.9439 34.8091 25.8731L34.8344 25.7971H32.1335L32.1172 25.8299C31.5975 26.8829 30.6967 27.416 29.4371 27.416C28.5601 27.416 27.8097 27.1375 27.2067 26.5909C26.6186 26.0563 26.2806 25.3414 26.2017 24.4641H35.0339L35.0414 24.415C35.098 24.062 35.1263 23.6629 35.1263 23.2295C35.1263 22.1035 34.8836 21.0937 34.4041 20.2269ZM27.2484 20.3818C27.8231 19.868 28.5244 19.6089 29.3314 19.6089C30.2233 19.6089 30.9811 19.8725 31.5841 20.3938C32.1708 20.9001 32.4819 21.5807 32.5087 22.4148H26.227C26.3461 21.5673 26.6901 20.8837 27.2499 20.3833L27.2484 20.3818Z" fill="white"/>
<path d="M32.3048 14.6646H26.4221V16.0586H32.3048V14.6646Z" fill="white"/>
</svg>
