<svg width="45" height="44" viewBox="0 0 45 44" fill="none" xmlns="http://www.w3.org/2000/svg">
<path d="M23.016 44H22.9192C10.8188 44 0.974121 34.1524 0.974121 22.0484V21.9516C0.974121 9.84763 10.8188 0 22.9192 0H23.016C35.1164 0 44.9611 9.84763 44.9611 21.9516V22.0484C44.9611 34.1524 35.1164 44 23.016 44ZM22.9192 1.48935C11.6392 1.48935 2.46304 10.6683 2.46304 21.9516V22.0484C2.46304 33.3317 11.6392 42.5106 22.9192 42.5106H23.016C34.296 42.5106 43.4722 33.3317 43.4722 22.0484V21.9516C43.4722 10.6683 34.296 1.48935 23.016 1.48935H22.9192Z" fill="white"/>
<path d="M36.3002 22.5531C36.3032 22.507 36.3047 22.4593 36.3062 22.4116L36.3315 21.8204L36.3091 21.8144C36.266 18.6897 35.1523 15.7289 33.1437 13.3638L33.1675 13.3385L32.5347 12.6876C29.9961 10.0798 26.5969 8.64404 22.961 8.64404C21.0939 8.64404 19.2983 9.02085 17.6113 9.76106L17.5979 9.75062L17.05 10.0217C16.3249 10.3806 15.64 10.8006 15.0013 11.2757C14.5754 11.593 14.1705 11.9325 13.7863 12.2959C13.6434 12.4315 13.5049 12.57 13.3679 12.7115C11.4904 14.6521 10.2159 17.1408 9.77667 19.8634L9.63522 20.745L9.66649 20.7525C9.62778 21.1665 9.60693 21.585 9.60693 22.002C9.60693 25.5422 11.0184 28.9365 13.5034 31.4312L13.493 31.4505L14.0499 31.9494C16.5021 34.1477 19.666 35.3601 22.9595 35.3601C23.1933 35.3601 23.4256 35.3541 23.6563 35.3422C25.2763 35.2603 26.8441 34.888 28.3241 34.2371C28.3241 34.2371 28.3256 34.2371 28.3271 34.2371L28.9063 33.9824V33.9645C33.2167 31.8124 36.0947 27.4144 36.2987 22.5904C36.2987 22.5889 36.2987 22.5874 36.2987 22.5859C36.2987 22.5844 36.2987 22.5814 36.2987 22.5799V22.5591L36.3002 22.5531ZM34.3438 23.2829C34.3378 23.3306 34.3319 23.3782 34.3259 23.4259C34.3155 23.5078 34.3051 23.5897 34.2932 23.6702C34.2857 23.7223 34.2768 23.7744 34.2678 23.8265C34.2559 23.9025 34.2425 23.9784 34.2291 24.0544C34.2187 24.1095 34.2083 24.1631 34.1964 24.2182C34.1815 24.2912 34.1681 24.3642 34.1517 24.4357C34.1398 24.4908 34.1264 24.5459 34.113 24.601C34.0966 24.6725 34.0787 24.7425 34.0609 24.8125C34.046 24.8676 34.0311 24.9242 34.0162 24.9793C33.9968 25.0478 33.9775 25.1178 33.9581 25.1863C33.9418 25.2414 33.9254 25.298 33.9075 25.3531C33.8867 25.4216 33.8643 25.4886 33.8435 25.5572C33.8256 25.6123 33.8063 25.6673 33.7869 25.7225C33.7631 25.7895 33.7393 25.8565 33.7155 25.9235C33.6961 25.9771 33.6752 26.0323 33.6544 26.0859C33.6291 26.1529 33.6023 26.2184 33.5755 26.2854C33.5546 26.339 33.5323 26.3912 33.51 26.4448C33.4817 26.5103 33.4534 26.5759 33.4236 26.6414C33.3998 26.6935 33.3775 26.7457 33.3536 26.7963C33.3224 26.8618 33.2911 26.9273 33.2598 26.9929C33.236 27.0435 33.2107 27.0927 33.1854 27.1433C33.1526 27.2088 33.1169 27.2744 33.0827 27.3399C33.0574 27.3876 33.032 27.4352 33.0067 27.4829C32.9695 27.5499 32.9308 27.6169 32.8921 27.684C32.8668 27.7286 32.8415 27.7733 32.8161 27.8165C32.773 27.8895 32.7283 27.9624 32.6836 28.0339C32.6613 28.0697 32.639 28.1069 32.6166 28.1441C32.5541 28.2424 32.4901 28.3393 32.4246 28.4361C32.4186 28.4465 32.4112 28.4554 32.4052 28.4659C32.3323 28.5716 32.2578 28.6758 32.1819 28.7801C32.1595 28.8099 32.1357 28.8397 32.1134 28.8695C32.0598 28.9425 32.0047 29.0139 31.9496 29.0854C31.9198 29.1241 31.8885 29.1614 31.8573 29.2001C31.8081 29.2612 31.7575 29.3237 31.7069 29.3833C31.6727 29.4235 31.6369 29.4637 31.6027 29.5039C31.5535 29.5605 31.5044 29.6171 31.4538 29.6737C31.4166 29.7154 31.3793 29.7556 31.3421 29.7958C31.293 29.8495 31.2424 29.9031 31.1917 29.9567C31.153 29.9969 31.1128 30.0371 31.0726 30.0773C31.022 30.128 30.9714 30.1801 30.9193 30.2307C30.8776 30.2709 30.8374 30.3097 30.7957 30.3499C30.7436 30.399 30.6915 30.4482 30.6393 30.4958C30.5962 30.5346 30.553 30.5733 30.5098 30.612C30.4562 30.6597 30.4026 30.7058 30.3475 30.752C30.3029 30.7892 30.2597 30.8265 30.2135 30.8637C30.1584 30.9084 30.1033 30.9546 30.0468 30.9978C30.0021 31.0335 29.9559 31.0693 29.9098 31.105C29.8532 31.1482 29.7951 31.1914 29.7386 31.2346C29.6924 31.2688 29.6448 31.3031 29.5986 31.3373C29.5405 31.379 29.481 31.4207 29.4214 31.4609C29.3738 31.4937 29.3276 31.5265 29.28 31.5578C29.2189 31.598 29.1564 31.6382 29.0953 31.6769C29.0477 31.7067 29.0001 31.738 28.9524 31.7678C28.9077 31.796 28.8616 31.8214 28.8154 31.8497C28.5995 29.0318 27.9682 26.1142 26.9662 23.3082C29.4482 22.7497 31.9675 22.7318 34.3468 23.262C34.3468 23.2695 34.3467 23.2769 34.3453 23.2829H34.3438ZM26.2694 21.524C25.9329 20.7272 25.5726 19.9483 25.1854 19.1946C27.6779 18.0612 29.9396 16.5376 31.8156 14.731C33.3581 16.6061 34.2559 18.9012 34.3944 21.3333C31.7605 20.8046 28.9881 20.8701 26.2679 21.524H26.2694ZM11.8403 19.2289C11.8835 19.0546 11.9311 18.8804 11.9832 18.7076C11.9922 18.6763 12.0026 18.6436 12.0115 18.6123C12.0636 18.444 12.1187 18.2772 12.1783 18.1119C12.1828 18.1 12.1857 18.0895 12.1902 18.0776C12.1976 18.0568 12.2051 18.0359 12.2125 18.015C12.2736 17.8512 12.3376 17.6904 12.4046 17.5295C12.415 17.5057 12.424 17.4833 12.4344 17.4595C12.4359 17.4551 12.4389 17.4506 12.4403 17.4446C12.5103 17.2808 12.5848 17.12 12.6637 16.9606C12.6756 16.9353 12.689 16.91 12.7009 16.8832C12.7813 16.7223 12.8647 16.5644 12.9525 16.4081C12.9659 16.3827 12.9793 16.3589 12.9942 16.3351C13.0806 16.1832 13.1714 16.0327 13.2652 15.8838C13.2756 15.8674 13.286 15.851 13.2965 15.8346C13.3024 15.8242 13.3099 15.8138 13.3173 15.8034C13.4126 15.6544 13.5124 15.5085 13.6136 15.3655C13.6315 15.3402 13.6508 15.3134 13.6687 15.2881C13.7729 15.1436 13.8816 15.0006 13.9933 14.8606C14.0111 14.8383 14.0305 14.8159 14.0484 14.7936C14.1615 14.6536 14.2777 14.5151 14.3983 14.3795C14.4132 14.3617 14.4295 14.3453 14.4444 14.3274C14.568 14.1889 14.696 14.0549 14.8271 13.9223C14.842 13.9074 14.8554 13.894 14.8702 13.8791C14.9983 13.7525 15.1278 13.6274 15.2618 13.5068C15.2737 13.4963 15.2857 13.4844 15.2976 13.474C15.305 13.468 15.311 13.4621 15.3184 13.4562C15.4524 13.337 15.5894 13.2208 15.7279 13.1061C15.7502 13.0883 15.7725 13.0689 15.7949 13.0511C15.9363 12.9379 16.0792 12.8291 16.2266 12.7219C16.252 12.704 16.2773 12.6847 16.3041 12.6668C16.4515 12.561 16.6019 12.4583 16.7552 12.36C16.779 12.3451 16.8043 12.3287 16.8282 12.3138C16.986 12.214 17.1453 12.1172 17.3091 12.0249C17.321 12.0189 17.3329 12.0115 17.3448 12.0055C19.2611 13.6736 21.0165 15.8034 22.4816 18.2355C18.9469 19.4791 15.2142 19.8395 11.8299 19.2646C11.8329 19.2527 11.8358 19.2393 11.8388 19.2259L11.8403 19.2289ZM23.5134 10.5534C23.5744 10.5564 23.6355 10.5623 23.6965 10.5653C23.8201 10.5727 23.9422 10.5817 24.0643 10.5921C24.1358 10.5996 24.2072 10.6085 24.2787 10.6159C24.3889 10.6279 24.4991 10.6413 24.6092 10.6577C24.6852 10.6681 24.7596 10.6815 24.8341 10.6934C24.9398 10.7113 25.044 10.7292 25.1482 10.7485C25.2242 10.7634 25.3001 10.7783 25.376 10.7947C25.4788 10.817 25.5815 10.8393 25.6828 10.8647C25.7587 10.8825 25.8331 10.9019 25.9076 10.9213C26.0088 10.9481 26.1101 10.9764 26.2113 11.0062C26.2843 11.027 26.3572 11.0494 26.4302 11.0717C26.5329 11.1045 26.6357 11.1387 26.7384 11.1745C26.8069 11.1983 26.8754 11.2206 26.9439 11.2459C27.054 11.2876 27.1642 11.3309 27.2729 11.3755C27.331 11.3994 27.389 11.4202 27.4456 11.4455C27.602 11.5125 27.7568 11.5825 27.9102 11.6555C27.9251 11.663 27.9414 11.6704 27.9563 11.6779C28.1112 11.7523 28.2645 11.8313 28.4149 11.9132C28.47 11.943 28.5236 11.9742 28.5772 12.0055C28.6799 12.0636 28.7827 12.1217 28.8854 12.1842C28.9479 12.2215 29.0075 12.2617 29.0685 12.3004C29.1609 12.3585 29.2517 12.4166 29.3425 12.4776C29.4065 12.5208 29.4691 12.564 29.5316 12.6087C29.618 12.6698 29.7043 12.7308 29.7892 12.7949C29.8517 12.8411 29.9128 12.8887 29.9753 12.9364C30.0587 13.0019 30.1421 13.0674 30.2239 13.1359C30.2835 13.1851 30.3431 13.2357 30.4026 13.2863C30.4339 13.3132 30.4651 13.343 30.4964 13.3698C28.7425 15.0587 26.6148 16.4766 24.2668 17.5266C22.8315 15.0885 21.1162 12.9215 19.2328 11.1566C20.4239 10.7455 21.6716 10.537 22.958 10.537C23.1442 10.537 23.3288 10.5415 23.5134 10.5504V10.5534ZM11.5336 21.1397C12.683 21.3333 13.8667 21.4302 15.0668 21.4302C17.8332 21.4302 20.6904 20.9208 23.4211 19.9184C23.7814 20.611 24.1209 21.3244 24.4365 22.0572C24.2772 22.1108 24.1194 22.1644 23.9616 22.2225C19.9564 23.7044 16.6376 26.342 14.4861 29.7124C12.5773 27.6139 11.5008 24.8631 11.5008 22.0006C11.5008 21.7131 11.5127 21.4257 11.5336 21.1397ZM22.4518 33.4492C22.3967 33.4463 22.3416 33.4418 22.2865 33.4388C22.1734 33.4328 22.0617 33.4254 21.9485 33.415C21.883 33.409 21.819 33.4016 21.7535 33.3941C21.6523 33.3837 21.5495 33.3718 21.4483 33.3584C21.3798 33.3494 21.3113 33.339 21.2428 33.3286C21.146 33.3137 21.0492 33.2988 20.9525 33.2809C20.8825 33.269 20.8125 33.2556 20.744 33.2407C20.6487 33.2213 20.5549 33.202 20.4611 33.1811C20.3911 33.1663 20.3227 33.1499 20.2542 33.132C20.1604 33.1096 20.0666 33.0843 19.9743 33.0605C19.9058 33.0426 19.8388 33.0233 19.7718 33.0039C19.678 32.9771 19.5842 32.9473 19.4904 32.9175C19.4248 32.8967 19.3608 32.8773 19.2953 32.855C19.1985 32.8222 19.1017 32.7865 19.0065 32.7522C18.9469 32.7299 18.8859 32.709 18.8263 32.6852C18.7221 32.645 18.6178 32.6018 18.5136 32.5571C18.4645 32.5363 18.4154 32.5169 18.3662 32.496C18.2173 32.4305 18.0699 32.362 17.924 32.2905C17.921 32.2905 17.9181 32.2875 17.9151 32.286C17.7647 32.2131 17.6173 32.1356 17.4699 32.0552C17.4267 32.0314 17.3835 32.0045 17.3389 31.9807C17.2376 31.9241 17.1364 31.8661 17.0366 31.8065C16.983 31.7737 16.9294 31.7395 16.8758 31.7052C16.788 31.6501 16.7001 31.595 16.6138 31.5369C16.5572 31.4997 16.5006 31.4594 16.4455 31.4207C16.3636 31.3641 16.2832 31.3075 16.2028 31.248C16.1448 31.2063 16.0882 31.1631 16.0316 31.1199C15.9884 31.0871 15.9452 31.0529 15.9021 31.0186C17.8213 27.8552 20.8914 25.3784 24.6212 23.9978C24.7909 23.9353 24.9636 23.8772 25.1363 23.8191C26.1994 26.7531 26.8307 29.8167 26.9736 32.7343C26.8084 32.7969 26.6416 32.855 26.4749 32.9086C26.4302 32.9235 26.384 32.9354 26.3394 32.9488C26.2083 32.989 26.0758 33.0292 25.9433 33.065C25.8778 33.0828 25.8108 33.0978 25.7438 33.1156C25.6306 33.1439 25.5175 33.1707 25.4028 33.1961C25.3314 33.2124 25.2584 33.2258 25.1854 33.2407C25.0753 33.263 24.9651 33.2824 24.8534 33.3018C24.7805 33.3137 24.706 33.3256 24.6316 33.336C24.5184 33.3524 24.4053 33.3673 24.2906 33.3792C24.2192 33.3882 24.1492 33.3956 24.0777 33.4031C23.9526 33.415 23.8276 33.4239 23.7025 33.4313C23.6415 33.4358 23.5819 33.4403 23.5208 33.4433C23.3347 33.4522 23.1471 33.4582 22.9595 33.4582C22.7898 33.4582 22.6215 33.4537 22.4533 33.4463L22.4518 33.4492Z" fill="white"/>
</svg>
