<svg width="24" height="24" viewBox="0 0 24 24" fill="none" xmlns="http://www.w3.org/2000/svg">
<path d="M0.838242 4.66765C0.27841 4.14786 0 3.50447 0 2.73894C0 1.97341 0.279899 1.30169 0.838242 0.78042C1.39807 0.260635 2.11871 0 3.00164 0C3.88457 0 4.57692 0.260635 5.13527 0.78042C5.6951 1.3002 5.97351 1.95405 5.97351 2.73894C5.97351 3.52383 5.69361 4.14786 5.13527 4.66765C4.57544 5.18743 3.86521 5.44807 3.00164 5.44807C2.13807 5.44807 1.39807 5.18743 0.838242 4.66765ZM5.50303 7.64934V23.5854H0.468994V7.64934H5.50303Z" fill="black"/>
<path d="M22.2609 9.22375C23.3582 10.4152 23.9061 12.0506 23.9061 14.1327V23.3041H19.1252V14.779C19.1252 13.729 18.8528 12.9129 18.3093 12.332C17.7659 11.7512 17.0333 11.4593 16.1161 11.4593C15.199 11.4593 14.4664 11.7497 13.9229 12.332C13.3795 12.9129 13.107 13.729 13.107 14.779V23.3041H8.29785V7.60484H13.107V9.68695C13.5939 8.99291 14.2505 8.44482 15.0754 8.04121C15.9003 7.63759 16.8278 7.43652 17.8597 7.43652C19.697 7.43652 21.165 8.03226 22.2609 9.22375Z" fill="black"/>
</svg>
