<svg width="44" height="44" viewBox="0 0 44 44" fill="none" xmlns="http://www.w3.org/2000/svg">
<path d="M22.0419 44H21.9451C9.84473 44 0 34.1524 0 22.0484V21.9516C0 9.84763 9.84473 0 21.9451 0H22.0419C34.1423 0 43.987 9.84763 43.987 21.9516V22.0484C43.987 34.1524 34.1423 44 22.0419 44ZM21.9451 1.48935C10.6651 1.48935 1.48892 10.6683 1.48892 21.9516V22.0484C1.48892 33.3317 10.6651 42.5106 21.9451 42.5106H22.0419C33.3219 42.5106 42.4981 33.3317 42.4981 22.0484V21.9516C42.4981 10.6683 33.3219 1.48935 22.0419 1.48935H21.9451Z" fill="white"/>
<path d="M10.8795 14.8742C10.3197 14.3544 10.0413 13.711 10.0413 12.9455C10.0413 12.18 10.3212 11.5082 10.8795 10.987C11.4393 10.4672 12.16 10.2065 13.0429 10.2065C13.9258 10.2065 14.6182 10.4672 15.1765 10.987C15.7364 11.5067 16.0148 12.1606 16.0148 12.9455C16.0148 13.7304 15.7349 14.3544 15.1765 14.8742C14.6167 15.394 13.9065 15.6546 13.0429 15.6546C12.1793 15.6546 11.4393 15.394 10.8795 14.8742ZM15.5443 17.8559V33.792H10.5103V17.8559H15.5443Z" fill="white"/>
<path d="M32.3021 19.4303C33.3995 20.6218 33.9474 22.2571 33.9474 24.3392V33.5106H29.1665V24.9856C29.1665 23.9356 28.894 23.1194 28.3506 22.5386C27.8071 21.9577 27.0746 21.6658 26.1574 21.6658C25.2402 21.6658 24.5077 21.9563 23.9642 22.5386C23.4207 23.1194 23.1483 23.9356 23.1483 24.9856V33.5106H18.3391V17.8114H23.1483V19.8935C23.6352 19.1995 24.2918 18.6514 25.1167 18.2478C25.9415 17.8441 26.8691 17.6431 27.9009 17.6431C29.7382 17.6431 31.2063 18.2388 32.3021 19.4303Z" fill="white"/>
</svg>
