<svg width="195" height="39" viewBox="0 0 195 39" fill="none" xmlns="http://www.w3.org/2000/svg">
<path d="M9.42578 29.4492C8.31901 29.4492 7.23828 29.293 6.18359 28.9805C5.12891 28.6549 4.19141 28.1211 3.37109 27.3789C2.53776 26.6497 1.86719 25.6862 1.35938 24.4883C0.864583 23.2773 0.617188 21.793 0.617188 20.0352C0.617188 17.2357 1.22266 14.6445 2.43359 12.2617C3.64453 9.87891 5.19401 7.84115 7.08203 6.14844C8.97005 4.44271 10.9883 3.1276 13.1367 2.20312C15.2982 1.27865 17.3294 0.816406 19.2305 0.816406C20.7669 0.816406 22.1732 1.05078 23.4492 1.51953C24.7253 1.98828 25.7865 2.69792 26.6328 3.64844C27.4922 4.59896 28.0391 5.8099 28.2734 7.28125L28.293 7.45703V7.63281C28.293 8.14062 28.1432 8.53125 27.8438 8.80469C27.5573 9.0651 27.2448 9.19531 26.9062 9.19531C26.5286 9.19531 26.1771 8.99349 25.8516 8.58984C25.526 8.1862 25.2135 7.61328 24.9141 6.87109C24.4323 5.95964 23.7357 5.29557 22.8242 4.87891C21.9128 4.46224 20.8841 4.25391 19.7383 4.25391C18.2539 4.25391 16.6654 4.65104 14.9727 5.44531C13.293 6.22656 11.7174 7.32031 10.2461 8.72656C8.77474 10.1328 7.57031 11.7669 6.63281 13.6289C5.70833 15.4779 5.24609 17.4375 5.24609 19.5078C5.24609 20.6667 5.38932 21.6432 5.67578 22.4375C5.96224 23.2318 6.33984 23.8763 6.80859 24.3711C7.27734 24.8659 7.80469 25.224 8.39062 25.4453C8.97656 25.6667 9.56901 25.7773 10.168 25.7773C11.9648 25.7773 13.625 25.1393 15.1484 23.8633C16.6849 22.5742 17.9154 20.7448 18.8398 18.375C19.7773 16.0052 20.2461 13.1927 20.2461 9.9375V9.19531L20.2266 8.45312C20.2266 7.80208 20.3438 7.32682 20.5781 7.02734C20.8125 6.71484 21.0794 6.55859 21.3789 6.55859C22.056 6.55859 22.5703 6.79948 22.9219 7.28125C23.2734 7.75 23.5143 8.36198 23.6445 9.11719C23.7878 9.8724 23.8594 10.6667 23.8594 11.5C23.8594 14.0911 23.4492 16.5 22.6289 18.7266C21.8216 20.9531 20.7279 22.8607 19.3477 24.4492C17.9674 26.0508 16.4115 27.2878 14.6797 28.1602C12.9609 29.0195 11.2096 29.4492 9.42578 29.4492ZM29.1016 29.4883C27.7734 29.4883 26.7513 29.1042 26.0352 28.3359C25.319 27.5547 24.9609 26.6237 24.9609 25.543C24.9609 24.6576 25.2539 23.6094 25.8398 22.3984C26.4388 21.1745 27.2266 19.9896 28.2031 18.8438C29.1927 17.6719 30.2995 16.7083 31.5234 15.9531C32.7604 15.1849 33.9909 14.8008 35.2148 14.8008C35.8138 14.8008 36.3086 14.9375 36.6992 15.2109C37.1029 15.4844 37.3047 15.9466 37.3047 16.5977C37.3047 17.1445 37.2201 17.75 37.0508 18.4141C36.8815 19.0651 36.6081 19.6315 36.2305 20.1133C35.8529 20.582 35.3451 20.8164 34.707 20.8164C34.4466 20.8164 34.2773 20.7773 34.1992 20.6992C34.1341 20.6211 34.1016 20.4844 34.1016 20.2891L34.1211 19.7617V19.1172C34.1211 18.8828 34.0885 18.6875 34.0234 18.5312C33.9583 18.362 33.7956 18.2773 33.5352 18.2773C33.1185 18.2773 32.6237 18.5052 32.0508 18.9609C31.4779 19.4036 30.9049 19.9961 30.332 20.7383C29.7982 21.4544 29.3555 22.1706 29.0039 22.8867C28.6523 23.5898 28.4766 24.1823 28.4766 24.6641C28.4766 25.1198 28.6328 25.4779 28.9453 25.7383C29.2708 25.9987 29.707 26.1289 30.2539 26.1289C31.1133 26.1289 32.0573 25.9271 33.0859 25.5234C34.1146 25.1198 35.0911 24.651 36.0156 24.1172C36.9141 23.5964 37.7018 23.1081 38.3789 22.6523C39.069 22.1966 39.4792 21.9362 39.6094 21.8711C39.8438 21.7669 40.0391 21.7148 40.1953 21.7148C40.5208 21.7148 40.7422 21.832 40.8594 22.0664C40.9766 22.3008 41.0352 22.5026 41.0352 22.6719C41.0352 22.7891 41.0221 22.9323 40.9961 23.1016C40.9701 23.2578 40.8724 23.4401 40.7031 23.6484C40.5208 23.8698 40.0456 24.2865 39.2773 24.8984C38.5091 25.5104 37.6628 26.1224 36.7383 26.7344C35.6315 27.4766 34.3945 28.1211 33.0273 28.668C31.6602 29.2148 30.3516 29.4883 29.1016 29.4883ZM43.7188 29.4883C42.3906 29.4883 41.3685 29.1042 40.6523 28.3359C39.9362 27.5547 39.5781 26.6237 39.5781 25.543C39.5781 24.6576 39.8711 23.6094 40.457 22.3984C41.056 21.1745 41.8438 19.9896 42.8203 18.8438C43.8099 17.6719 44.9167 16.7083 46.1406 15.9531C47.3776 15.1849 48.6081 14.8008 49.832 14.8008C50.431 14.8008 50.9258 14.9375 51.3164 15.2109C51.7201 15.4844 51.9219 15.9466 51.9219 16.5977C51.9219 17.1445 51.8372 17.75 51.668 18.4141C51.4987 19.0651 51.2253 19.6315 50.8477 20.1133C50.4701 20.582 49.9622 20.8164 49.3242 20.8164C49.0638 20.8164 48.8945 20.7773 48.8164 20.6992C48.7513 20.6211 48.7188 20.4844 48.7188 20.2891L48.7383 19.7617V19.1172C48.7383 18.8828 48.7057 18.6875 48.6406 18.5312C48.5755 18.362 48.4128 18.2773 48.1523 18.2773C47.7357 18.2773 47.2409 18.5052 46.668 18.9609C46.0951 19.4036 45.5221 19.9961 44.9492 20.7383C44.4154 21.4544 43.9727 22.1706 43.6211 22.8867C43.2695 23.5898 43.0938 24.1823 43.0938 24.6641C43.0938 25.1198 43.25 25.4779 43.5625 25.7383C43.888 25.9987 44.3242 26.1289 44.8711 26.1289C45.7305 26.1289 46.6745 25.9271 47.7031 25.5234C48.7318 25.1198 49.7083 24.651 50.6328 24.1172C51.5312 23.5964 52.319 23.1081 52.9961 22.6523C53.6862 22.1966 54.0964 21.9362 54.2266 21.8711C54.4609 21.7669 54.6562 21.7148 54.8125 21.7148C55.138 21.7148 55.3594 21.832 55.4766 22.0664C55.5938 22.3008 55.6523 22.5026 55.6523 22.6719C55.6523 22.7891 55.6393 22.9323 55.6133 23.1016C55.5872 23.2578 55.4896 23.4401 55.3203 23.6484C55.138 23.8698 54.6628 24.2865 53.8945 24.8984C53.1263 25.5104 52.2799 26.1224 51.3555 26.7344C50.2487 27.4766 49.0117 28.1211 47.6445 28.668C46.2773 29.2148 44.9688 29.4883 43.7188 29.4883ZM54.4102 29.4883C53.9544 29.4883 53.6029 29.3516 53.3555 29.0781C53.1081 28.8177 52.9844 28.4857 52.9844 28.082C52.9844 27.5352 53.2057 26.8125 53.6484 25.9141C54.0781 25.0156 54.5664 24.0195 55.1133 22.9258C55.6602 21.819 56.194 20.7513 56.7148 19.7227C57.2487 18.694 57.6849 17.8346 58.0234 17.1445L64.4688 4.46875C64.625 4.13021 64.931 3.83073 65.3867 3.57031C65.8424 3.29688 66.2982 3.16016 66.7539 3.16016C67.3268 3.16016 67.724 3.27083 67.9453 3.49219C68.1667 3.70052 68.2773 3.96094 68.2773 4.27344C68.2773 4.5599 68.2057 4.86589 68.0625 5.19141C67.9193 5.50391 67.7565 5.79688 67.5742 6.07031C66.5065 7.90625 65.4453 9.8724 64.3906 11.9688C63.3359 14.0651 62.2292 16.0768 61.0703 18.0039C61.5651 17.5221 62.099 17.0404 62.6719 16.5586C63.2448 16.0638 63.8893 15.6471 64.6055 15.3086C65.3216 14.9701 66.1419 14.8008 67.0664 14.8008C67.9258 14.8008 68.6615 14.9701 69.2734 15.3086C69.8854 15.6471 70.1914 16.2591 70.1914 17.1445C70.1914 17.9779 70.0091 18.7396 69.6445 19.4297C69.2799 20.1198 68.8503 20.7708 68.3555 21.3828C67.8737 21.9818 67.4245 22.6003 67.0078 23.2383C66.5911 23.8763 66.3438 24.5729 66.2656 25.3281V25.4062L66.2461 25.4844C66.2461 25.7448 66.3307 25.9076 66.5 25.9727C66.6823 26.0378 66.9102 26.0703 67.1836 26.0703C67.7174 26.0703 68.2904 25.9271 68.9023 25.6406C69.5273 25.3411 70.1523 24.9766 70.7773 24.5469C71.3893 24.1172 71.9557 23.6745 72.4766 23.2188C73.0104 22.763 73.4401 22.3789 73.7656 22.0664C73.987 21.8581 74.2344 21.7539 74.5078 21.7539C74.7422 21.7539 74.9375 21.8451 75.0938 22.0273C75.263 22.1966 75.3477 22.431 75.3477 22.7305C75.3477 23.0039 75.25 23.3164 75.0547 23.668C74.8724 24.0195 74.5534 24.3711 74.0977 24.7227C73.1602 25.5299 72.1901 26.2982 71.1875 27.0273C70.1979 27.7565 69.1953 28.349 68.1797 28.8047C67.1771 29.2604 66.1875 29.4883 65.2109 29.4883C64.2865 29.4883 63.5443 29.2799 62.9844 28.8633C62.4245 28.4336 62.1445 27.763 62.1445 26.8516C62.1445 25.9531 62.3464 25.0938 62.75 24.2734C63.1667 23.4531 63.6289 22.6914 64.1367 21.9883C64.6576 21.2852 65.0742 20.6667 65.3867 20.1328C65.543 19.9115 65.6602 19.7096 65.7383 19.5273C65.8294 19.332 65.875 19.1237 65.875 18.9023C65.875 18.4596 65.6602 18.2383 65.2305 18.2383C64.2148 18.2383 63.2969 18.5573 62.4766 19.1953C61.6693 19.8203 60.9336 20.5951 60.2695 21.5195C59.6185 22.431 59.0195 23.3164 58.4727 24.1758C58.2122 24.5794 57.9388 25.0742 57.6523 25.6602C57.3659 26.2461 57.0469 26.8451 56.6953 27.457C56.3698 28.0299 56.0117 28.5117 55.6211 28.9023C55.2305 29.293 54.8268 29.4883 54.4102 29.4883ZM82.0156 13.4922C81.2083 13.4922 80.6419 13.3685 80.3164 13.1211C79.9909 12.8607 79.8086 12.5221 79.7695 12.1055C79.7695 11.4935 79.9909 10.8945 80.4336 10.3086C80.8893 9.70964 81.5599 9.41016 82.4453 9.41016C83.2005 9.41016 83.7279 9.5599 84.0273 9.85938C84.3268 10.1458 84.4766 10.5104 84.4766 10.9531C84.4766 11.4479 84.2812 11.9948 83.8906 12.5938C83.513 13.1927 82.888 13.4922 82.0156 13.4922ZM77.2305 29.4883C76.1758 29.4883 75.3424 29.2214 74.7305 28.6875C74.1315 28.1406 73.832 27.2943 73.832 26.1484C73.832 25.3542 73.9753 24.5664 74.2617 23.7852C74.5612 22.9909 74.8867 22.2487 75.2383 21.5586C75.6029 20.8555 75.8893 20.2435 76.0977 19.7227C76.1628 19.5534 76.2734 19.293 76.4297 18.9414C76.599 18.5898 76.7747 18.2318 76.957 17.8672L77.6211 16.5C77.8424 16.1354 78.0964 15.875 78.3828 15.7188C78.6693 15.5625 78.9622 15.4844 79.2617 15.4844C79.7565 15.4844 80.1797 15.6471 80.5312 15.9727C80.8958 16.2852 81.0781 16.6888 81.0781 17.1836C81.0651 17.3008 81.0456 17.418 81.0195 17.5352C81.0065 17.6523 80.9674 17.7695 80.9023 17.8867C80.6159 18.4076 80.3685 18.8958 80.1602 19.3516C79.9518 19.7943 79.737 20.2435 79.5156 20.6992C79.3333 21.0768 79.1055 21.5391 78.832 22.0859C78.5586 22.6328 78.3177 23.1862 78.1094 23.7461C77.901 24.293 77.7969 24.7812 77.7969 25.2109C77.7969 25.5625 77.8815 25.7969 78.0508 25.9141C78.2331 26.0182 78.487 26.0703 78.8125 26.0703C79.3333 26.0703 79.9062 25.9076 80.5312 25.582C81.1693 25.2565 81.7747 24.8529 82.3477 24.3711C82.9466 23.8893 83.5 23.401 84.0078 22.9062C84.5156 22.3984 84.8932 21.9883 85.1406 21.6758C85.388 21.4284 85.6484 21.3047 85.9219 21.3047C86.1562 21.3047 86.3451 21.4089 86.4883 21.6172C86.6445 21.8255 86.7227 22.0924 86.7227 22.418C86.7227 22.7174 86.6445 23.0365 86.4883 23.375C86.3451 23.7135 86.1042 24.0326 85.7656 24.332C84.9062 25.2044 84.0078 26.0378 83.0703 26.832C82.1328 27.6133 81.1693 28.2513 80.1797 28.7461C79.2031 29.2409 78.2201 29.4883 77.2305 29.4883ZM88.1758 29.4883C87.1081 29.4883 86.3724 29.2214 85.9688 28.6875C85.5781 28.1536 85.3828 27.5026 85.3828 26.7344C85.3828 26.0964 85.474 25.4453 85.6562 24.7812C85.8516 24.1042 86.0794 23.4857 86.3398 22.9258C86.7956 21.9102 87.2578 20.901 87.7266 19.8984C88.1953 18.8958 88.625 17.9779 89.0156 17.1445L94.9336 4.54688C95.2331 3.89583 95.6823 3.47266 96.2812 3.27734C96.8802 3.08203 97.4271 3.10156 97.9219 3.33594C98.4297 3.55729 98.6836 3.96745 98.6836 4.56641C98.6836 4.80078 98.625 5.04818 98.5078 5.30859C98.4036 5.56901 98.2669 5.84896 98.0977 6.14844C97.6289 7.03385 97.0299 8.19922 96.3008 9.64453C95.5846 11.0898 94.7904 12.7174 93.918 14.5273C92.9674 16.5195 92.1667 18.1927 91.5156 19.5469C90.8776 20.888 90.2786 22.1576 89.7188 23.3555C89.5755 23.6549 89.4323 24.0065 89.2891 24.4102C89.1589 24.8008 89.0938 25.1523 89.0938 25.4648C89.0938 25.8945 89.2826 26.1094 89.6602 26.1094C90.0768 26.1094 90.6302 25.9401 91.3203 25.6016C92.0234 25.25 92.7526 24.8138 93.5078 24.293C94.276 23.7852 95.0182 23.2578 95.7344 22.7109C96.4505 22.151 97.1146 21.6107 97.7266 21.0898C97.9349 20.9206 98.1823 20.8359 98.4688 20.8359C99.0677 20.8359 99.3672 21.168 99.3672 21.832C99.3672 22.1055 99.276 22.4115 99.0938 22.75C98.9115 23.0885 98.5924 23.4206 98.1367 23.7461C97.3034 24.5143 96.4635 25.2435 95.6172 25.9336C94.7839 26.6107 93.944 27.2161 93.0977 27.75C92.2643 28.2708 91.431 28.6875 90.5977 29C89.7643 29.3255 88.957 29.4883 88.1758 29.4883ZM101.074 29.4883C100.228 29.4883 99.4661 29.2865 98.7891 28.8828C98.125 28.4792 97.793 27.7174 97.793 26.5977C97.793 26.5065 97.832 26.2461 97.9102 25.8164C98.0013 25.3867 98.1576 24.8398 98.3789 24.1758C98.6523 23.3555 99.082 22.2878 99.668 20.9727C100.254 19.6576 101.081 18.0625 102.148 16.1875C102.422 15.6927 102.734 15.3411 103.086 15.1328C103.451 14.9115 103.841 14.8008 104.258 14.8008C104.674 14.8008 105.059 14.9049 105.41 15.1133C105.762 15.3086 105.938 15.5951 105.938 15.9727C105.938 16.1029 105.918 16.2266 105.879 16.3438C105.788 16.6432 105.54 17.1055 105.137 17.7305C104.746 18.3555 104.303 19.0911 103.809 19.9375C103.327 20.7318 102.891 21.5846 102.5 22.4961C102.122 23.4076 101.914 24.2669 101.875 25.0742C101.875 25.3086 101.94 25.5234 102.07 25.7188C102.201 25.9141 102.415 26.0117 102.715 26.0117C103.561 26.0117 104.362 25.7839 105.117 25.3281C105.885 24.8594 106.602 24.2734 107.266 23.5703C107.93 22.8542 108.522 22.099 109.043 21.3047C109.564 20.5104 110 19.7812 110.352 19.1172C110.677 18.5312 110.964 17.9062 111.211 17.2422C111.458 16.5651 111.751 15.9857 112.09 15.5039C112.428 15.0221 112.884 14.7812 113.457 14.7812C113.926 14.7812 114.297 14.931 114.57 15.2305C114.844 15.5299 114.98 15.888 114.98 16.3047C114.98 16.6432 114.792 17.1901 114.414 17.9453C114.049 18.6875 113.639 19.4948 113.184 20.3672C112.702 21.2786 112.279 22.2096 111.914 23.1602C111.562 24.0977 111.387 24.931 111.387 25.6602C111.387 26.1289 111.673 26.3633 112.246 26.3633C113.118 26.3633 114.251 25.9141 115.645 25.0156C116.296 24.599 116.947 24.1042 117.598 23.5312C118.262 22.9583 118.848 22.3398 119.355 21.6758L119.551 24.332C118.678 25.3346 117.624 26.2656 116.387 27.125C115.163 27.9714 113.971 28.6094 112.812 29.0391C111.615 29.4948 110.612 29.599 109.805 29.3516C108.997 29.1042 108.594 28.375 108.594 27.1641C108.594 26.5521 108.698 25.8555 108.906 25.0742C108.464 25.7383 107.871 26.4154 107.129 27.1055C106.387 27.7826 105.508 28.349 104.492 28.8047C103.49 29.2604 102.35 29.4883 101.074 29.4883ZM113.719 38.9219C113.25 38.9219 112.866 38.8242 112.566 38.6289C112.254 38.4466 112.098 38.0885 112.098 37.5547C112.098 37.0469 112.234 36.5065 112.508 35.9336C112.781 35.3607 113.016 34.8594 113.211 34.4297C114.122 32.75 115.06 31.0312 116.023 29.2734C116.987 27.5286 117.885 25.8099 118.719 24.1172C119.565 22.4245 120.242 20.8164 120.75 19.293C120.841 19.0846 120.971 18.7786 121.141 18.375C121.31 17.9583 121.518 17.5286 121.766 17.0859C122.013 16.6432 122.286 16.2656 122.586 15.9531C122.885 15.6406 123.204 15.4844 123.543 15.4844C124.533 15.4844 125.027 15.8815 125.027 16.6758C125.027 16.819 124.982 17.1185 124.891 17.5742C124.812 18.0169 124.728 18.3229 124.637 18.4922C125.275 17.9062 125.978 17.3333 126.746 16.7734C127.514 16.2005 128.315 15.7318 129.148 15.3672C129.995 14.9896 130.828 14.8008 131.648 14.8008C132.508 14.8008 133.309 15.0091 134.051 15.4258C134.806 15.8294 135.184 16.4349 135.184 17.2422C135.184 18.0104 134.852 18.8698 134.188 19.8203C133.536 20.7578 132.788 21.6693 131.941 22.5547C131.447 23.0755 130.945 23.5833 130.438 24.0781C129.93 24.5599 129.5 24.9766 129.148 25.3281C128.81 25.6797 128.634 25.9141 128.621 26.0312C128.621 26.3828 128.875 26.5586 129.383 26.5586C129.904 26.5586 130.978 25.9987 132.605 24.8789C134.233 23.7461 136.538 22.0599 139.52 19.8203C139.923 19.5859 140.242 19.4688 140.477 19.4688C140.763 19.4688 140.978 19.5794 141.121 19.8008C141.264 20.0091 141.336 20.2695 141.336 20.582C141.336 20.9206 141.245 21.2656 141.062 21.6172C140.893 21.9688 140.633 22.2617 140.281 22.4961C138.927 23.4987 137.684 24.4492 136.551 25.3477C135.444 26.2201 134.415 26.9557 133.465 27.5547C132.488 28.1797 131.538 28.6615 130.613 29C129.689 29.3385 128.699 29.5078 127.645 29.5078C126.655 29.5078 125.887 29.3255 125.34 28.9609C124.806 28.5964 124.539 28.0951 124.539 27.457V27.3008L124.559 27.1445C124.637 26.5716 125.021 25.875 125.711 25.0547C126.414 24.2214 127.182 23.388 128.016 22.5547C128.823 21.7474 129.559 20.9792 130.223 20.25C130.887 19.5208 131.219 18.9609 131.219 18.5703C131.219 18.2318 130.939 18.0625 130.379 18.0625C129.611 18.0625 128.803 18.3034 127.957 18.7852C127.124 19.2669 126.323 19.8854 125.555 20.6406C124.76 21.3958 124.057 22.1836 123.445 23.0039C122.833 23.8242 122.326 24.5859 121.922 25.2891L120.594 27.7695C120.294 28.3294 120.034 28.8177 119.812 29.2344C119.604 29.651 119.461 29.931 119.383 30.0742C119.292 30.2435 119.116 30.6146 118.855 31.1875C118.608 31.7604 118.302 32.4505 117.938 33.2578C117.573 34.0521 117.26 34.7357 117 35.3086C116.753 35.8945 116.603 36.2656 116.551 36.4219C116.303 37.0859 115.952 37.6654 115.496 38.1602C115.04 38.668 114.448 38.9219 113.719 38.9219ZM142.867 29.4883C142.346 29.4883 141.754 29.3451 141.09 29.0586C140.439 28.7852 139.872 28.3424 139.391 27.7305C138.909 27.1185 138.668 26.3112 138.668 25.3086C138.668 24.5013 138.857 23.5117 139.234 22.3398C139.625 21.168 140.217 20.0091 141.012 18.8633C141.819 17.7044 142.854 16.7409 144.117 15.9727C145.38 15.1914 146.845 14.8008 148.512 14.8008C149.176 14.8008 149.879 14.9245 150.621 15.1719C151.376 15.4193 152.021 15.8359 152.555 16.4219C153.089 16.9948 153.355 17.7891 153.355 18.8047C153.355 19.638 153.147 20.6081 152.73 21.7148C152.965 22.0013 153.297 22.1445 153.727 22.1445C154.13 22.1445 154.599 21.9818 155.133 21.6562C155.667 21.3307 156.194 20.9336 156.715 20.4648C157.249 19.9961 157.73 19.5273 158.16 19.0586C158.603 18.5898 158.948 18.2122 159.195 17.9258C159.286 17.8346 159.397 17.7891 159.527 17.7891C159.814 17.7891 160.022 17.9714 160.152 18.3359C160.283 18.7005 160.257 19.1628 160.074 19.7227C159.892 20.2695 159.469 20.8359 158.805 21.4219C158.414 21.8385 157.932 22.3529 157.359 22.9648C156.799 23.5638 156.188 24.0977 155.523 24.5664C154.872 25.0221 154.208 25.25 153.531 25.25C152.841 25.25 152.19 25.0286 151.578 24.5859C150.615 26.0964 149.391 27.2943 147.906 28.1797C146.422 29.0521 144.742 29.4883 142.867 29.4883ZM144.566 26.0703C145.387 26.0703 146.155 25.7969 146.871 25.25C147.587 24.7031 148.167 24.013 148.609 23.1797C149.052 22.3464 149.273 21.4935 149.273 20.6211C149.273 20.2826 149.234 19.931 149.156 19.5664C149.091 19.1888 148.935 18.8763 148.688 18.6289C148.44 18.3685 148.043 18.2383 147.496 18.2383C146.689 18.2383 145.927 18.4987 145.211 19.0195C144.495 19.5273 143.909 20.1914 143.453 21.0117C143.01 21.819 142.789 22.6654 142.789 23.5508C142.789 23.8763 142.828 24.2409 142.906 24.6445C142.984 25.0352 143.147 25.3737 143.395 25.6602C143.655 25.9336 144.046 26.0703 144.566 26.0703ZM161.43 29.4883C160.909 29.4883 160.316 29.3451 159.652 29.0586C159.001 28.7852 158.435 28.3424 157.953 27.7305C157.471 27.1185 157.23 26.3112 157.23 25.3086C157.23 24.5013 157.419 23.5117 157.797 22.3398C158.188 21.168 158.78 20.0091 159.574 18.8633C160.382 17.7044 161.417 16.7409 162.68 15.9727C163.943 15.1914 165.408 14.8008 167.074 14.8008C167.738 14.8008 168.441 14.9245 169.184 15.1719C169.939 15.4193 170.583 15.8359 171.117 16.4219C171.651 16.9948 171.918 17.7891 171.918 18.8047C171.918 19.638 171.71 20.6081 171.293 21.7148C171.527 22.0013 171.859 22.1445 172.289 22.1445C172.693 22.1445 173.161 21.9818 173.695 21.6562C174.229 21.3307 174.757 20.9336 175.277 20.4648C175.811 19.9961 176.293 19.5273 176.723 19.0586C177.165 18.5898 177.51 18.2122 177.758 17.9258C177.849 17.8346 177.96 17.7891 178.09 17.7891C178.376 17.7891 178.585 17.9714 178.715 18.3359C178.845 18.7005 178.819 19.1628 178.637 19.7227C178.454 20.2695 178.031 20.8359 177.367 21.4219C176.977 21.8385 176.495 22.3529 175.922 22.9648C175.362 23.5638 174.75 24.0977 174.086 24.5664C173.435 25.0221 172.771 25.25 172.094 25.25C171.404 25.25 170.753 25.0286 170.141 24.5859C169.177 26.0964 167.953 27.2943 166.469 28.1797C164.984 29.0521 163.305 29.4883 161.43 29.4883ZM163.129 26.0703C163.949 26.0703 164.717 25.7969 165.434 25.25C166.15 24.7031 166.729 24.013 167.172 23.1797C167.615 22.3464 167.836 21.4935 167.836 20.6211C167.836 20.2826 167.797 19.931 167.719 19.5664C167.654 19.1888 167.497 18.8763 167.25 18.6289C167.003 18.3685 166.605 18.2383 166.059 18.2383C165.251 18.2383 164.49 18.4987 163.773 19.0195C163.057 19.5273 162.471 20.1914 162.016 21.0117C161.573 21.819 161.352 22.6654 161.352 23.5508C161.352 23.8763 161.391 24.2409 161.469 24.6445C161.547 25.0352 161.71 25.3737 161.957 25.6602C162.217 25.9336 162.608 26.0703 163.129 26.0703ZM173.703 34.918C173.391 34.918 173.111 34.8398 172.863 34.6836C172.616 34.5273 172.492 34.2799 172.492 33.9414C172.492 33.6419 172.642 33.1797 172.941 32.5547L179.836 17.9453H178.801C178.085 17.9453 177.596 17.8346 177.336 17.6133C177.076 17.3919 176.945 17.1315 176.945 16.832C176.945 16.5195 177.108 16.2201 177.434 15.9336C177.759 15.6341 178.234 15.4844 178.859 15.4844H181.164C182.401 12.9844 183.632 11.0638 184.855 9.72266C186.092 8.36849 187.297 7.43099 188.469 6.91016C189.641 6.38932 190.741 6.12891 191.77 6.12891C192.499 6.12891 193.143 6.42188 193.703 7.00781C194.263 7.58073 194.543 8.44661 194.543 9.60547C194.543 10.1523 194.465 10.7708 194.309 11.4609C194.23 11.8125 194.022 12.0664 193.684 12.2227C193.358 12.3659 193.091 12.4375 192.883 12.4375C192.622 12.4375 192.382 12.3789 192.16 12.2617C191.939 12.1315 191.828 11.9362 191.828 11.6758C191.828 11.5456 191.841 11.3893 191.867 11.207C191.88 11.1159 191.887 10.9727 191.887 10.7773C191.887 9.76172 191.516 9.25391 190.773 9.25391C190.253 9.25391 189.615 9.55339 188.859 10.1523C188.104 10.7383 187.362 11.5065 186.633 12.457C185.904 13.4076 185.318 14.4167 184.875 15.4844H189.426C190.272 15.4844 190.969 15.5299 191.516 15.6211C192.062 15.7122 192.336 16.0378 192.336 16.5977C192.336 16.9232 192.212 17.2096 191.965 17.457C191.717 17.7044 191.268 17.8542 190.617 17.9062C189.393 17.9583 188.202 17.9909 187.043 18.0039C185.884 18.0039 184.712 18.0039 183.527 18.0039C183.241 18.5768 182.876 19.319 182.434 20.2305C181.991 21.1289 181.529 22.0859 181.047 23.1016C180.565 24.1172 180.109 25.0807 179.68 25.9922C178.924 27.5807 178.26 28.9674 177.688 30.1523C177.128 31.3503 176.698 32.2552 176.398 32.8672C176.112 33.4661 175.708 33.9544 175.188 34.332C174.68 34.7227 174.185 34.918 173.703 34.918Z" fill="black"/>
</svg>
