<svg width="28" height="27" viewBox="0 0 28 27" fill="none" xmlns="http://www.w3.org/2000/svg">
<path d="M17.9862 19.6088C12.5472 19.6088 8.12209 15.181 8.12061 9.74038C8.12209 8.36124 9.24474 7.23975 10.6205 7.23975C10.7619 7.23975 10.9019 7.25166 11.0359 7.27549C11.3307 7.32464 11.6106 7.42443 11.8682 7.57485C11.9054 7.59719 11.9307 7.63296 11.9367 7.67466L12.5114 11.2982C12.5189 11.3414 12.5055 11.3831 12.4772 11.4144C12.16 11.7659 11.7551 12.0191 11.3039 12.1457L11.0865 12.2068L11.1684 12.4167C11.9099 14.3052 13.4197 15.814 15.3091 16.5586L15.519 16.6421L15.5801 16.4246C15.7066 15.9733 15.9598 15.5682 16.3111 15.251C16.3364 15.2272 16.3707 15.2152 16.4049 15.2152C16.4124 15.2152 16.4198 15.2153 16.4288 15.2167L20.0513 15.7916C20.0945 15.7991 20.1302 15.8229 20.1525 15.8602C20.3014 16.1178 20.4012 16.3993 20.4518 16.6942C20.4756 16.8252 20.4861 16.9637 20.4861 17.1082C20.4861 18.4859 19.3649 19.6074 17.9862 19.6088Z" fill="black"/>
<path d="M27.6313 12.1978C27.338 8.8825 25.8193 5.807 23.3552 3.53871C20.8761 1.25702 17.66 0 14.2966 0C6.91453 0 0.908254 6.00805 0.908254 13.3923C0.908254 15.8706 1.59165 18.2848 2.88552 20.3878L0 26.7771L9.23873 25.7926C10.8453 26.4509 12.5456 26.7845 14.2951 26.7845C14.7552 26.7845 15.2272 26.7607 15.7006 26.7116C16.1175 26.6669 16.5389 26.6014 16.9528 26.518C23.1348 25.2684 27.6477 19.7801 27.6834 13.4638V13.3923C27.6834 12.9901 27.6656 12.588 27.6298 12.1993L27.6313 12.1978ZM9.59459 22.9882L4.48314 23.5333L6.00928 20.151L5.70405 19.7414C5.68171 19.7116 5.65938 19.6818 5.63407 19.6476C4.30894 17.8171 3.60913 15.6546 3.60913 13.3938C3.60913 7.49889 8.40345 2.70317 14.2966 2.70317C19.8175 2.70317 24.4972 7.01189 24.9483 12.5121C24.9721 12.807 24.9855 13.1033 24.9855 13.3953C24.9855 13.4787 24.984 13.5606 24.9825 13.6484C24.8694 18.5797 21.4255 22.7678 16.6074 23.8342C16.2396 23.9161 15.8629 23.9786 15.4877 24.0188C15.0976 24.0635 14.6971 24.0858 14.2996 24.0858C12.8836 24.0858 11.5078 23.8118 10.208 23.2697C10.0636 23.2116 9.92214 23.149 9.78963 23.085L9.59608 22.9912L9.59459 22.9882Z" fill="black"/>
</svg>
